<svg id="Layer_1" data-name="Layer 1" xmlns="http://www.w3.org/2000/svg" viewBox="0 0 184.01 60.41"><defs><style>.cls-1{fill:#fff;}</style></defs><title>logo</title><path class="cls-1" d="M38.49,60.41,26.84,43.58H14V60.41H0V0H26.15A33.58,33.58,0,0,1,40.09,2.67a20.72,20.72,0,0,1,9.11,7.6,20.93,20.93,0,0,1,3.19,11.65,20.51,20.51,0,0,1-3.24,11.61A20.51,20.51,0,0,1,40,41L53.51,60.41ZM35,14.1q-3.28-2.72-9.58-2.72H14V32.44H25.37q6.3,0,9.58-2.76a9.6,9.6,0,0,0,3.28-7.77Q38.23,16.82,35,14.1Z"/><path class="cls-1" d="M75.09,11.38H55.75V0H108.4V11.38H89.07v49h-14Z"/><path class="cls-1" d="M170.89,60.41l-.09-36.25L153,54h-6.3L129,24.93V60.41H115.91V0h11.56l22.61,37.54L172.36,0h11.48L184,60.41Z"/></svg>