<svg id="Layer_1" data-name="Layer 1" xmlns="http://www.w3.org/2000/svg" viewBox="0 0 184.01 61.07"><defs><style>.cls-1{fill:#4f83cc;}</style></defs><title>logo</title><path class="cls-1" d="M38.49,61.07,26.84,44.24H14V61.07H0V.66H26.15A33.58,33.58,0,0,1,40.09,3.33a20.72,20.72,0,0,1,9.11,7.6,20.93,20.93,0,0,1,3.19,11.65,20.51,20.51,0,0,1-3.24,11.61A20.51,20.51,0,0,1,40,41.65L53.51,61.07ZM35,14.77Q31.67,12,25.37,12.05H14V33.11H25.37q6.3,0,9.58-2.76a9.6,9.6,0,0,0,3.28-7.77Q38.23,17.49,35,14.77Z"/><path class="cls-1" d="M75.09,12.05H55.75V.66H108.4V12.05H89.07v49h-14Z"/><path class="cls-1" d="M170.89,61.07l-.09-36.25L153,54.69h-6.3L129,25.6V61.07H115.91V.66h11.56L150.09,38.2,172.36.66h11.48L184,61.07Z"/></svg>